<?xml version="1.0" encoding="UTF-8" standalone="no"?><svg xmlns="http://www.w3.org/2000/svg" xmlns:xlink="http://www.w3.org/1999/xlink" contentStyleType="text/css" height="318px" preserveAspectRatio="none" style="width:996px;height:318px;background:#FFFFFF;" version="1.1" viewBox="0 0 996 318" width="996px" zoomAndPan="magnify"><defs/><g><rect height="26.2969" style="stroke:#00000000;stroke-width:1.0;fill:none;" width="236" x="373" y="5"/><text fill="#000000" font-family="sans-serif" font-size="14" font-weight="bold" lengthAdjust="spacing" textLength="226" x="378" y="22.9951">Generic Use Case - Gateway</text><!--MD5=[4780f6e3728276b240209030cee2867d]
cluster Usecase--><g id="cluster_Usecase"><path d="M8.5,43.2969 L76.5,43.2969 A3.75,3.75 0 0 1 79,45.7969 L86,65.5938 L747.5,65.5938 A2.5,2.5 0 0 1 750,68.0938 L750,238.7969 A2.5,2.5 0 0 1 747.5,241.2969 L8.5,241.2969 A2.5,2.5 0 0 1 6,238.7969 L6,45.7969 A2.5,2.5 0 0 1 8.5,43.2969 " style="stroke:#000000;stroke-width:1.5;fill:none;"/><line style="stroke:#000000;stroke-width:1.5;fill:none;" x1="6" x2="86" y1="65.5938" y2="65.5938"/><text fill="#000000" font-family="sans-serif" font-size="14" font-weight="bold" lengthAdjust="spacing" textLength="67" x="10" y="58.292">Usecase</text></g><!--MD5=[0f32f84ecf5d06bea2be019157bfed65]
cluster Gateway Driver--><g id="cluster_Gateway Driver"><path d="M780.5,136.2969 L903.5,136.2969 A3.75,3.75 0 0 1 906,138.7969 L913,158.5938 L986.5,158.5938 A2.5,2.5 0 0 1 989,161.0938 L989,232.7969 A2.5,2.5 0 0 1 986.5,235.2969 L780.5,235.2969 A2.5,2.5 0 0 1 778,232.7969 L778,138.7969 A2.5,2.5 0 0 1 780.5,136.2969 " style="stroke:#000000;stroke-width:1.5;fill:none;"/><line style="stroke:#000000;stroke-width:1.5;fill:none;" x1="778" x2="913" y1="158.5938" y2="158.5938"/><text fill="#000000" font-family="sans-serif" font-size="14" font-weight="bold" lengthAdjust="spacing" textLength="122" x="782" y="151.292">Gateway Driver</text></g><path d="M647.5,258.7969 L692.5,258.7969 A3.75,3.75 0 0 1 695,261.2969 L702,281.0938 L706.5,281.0938 A2.5,2.5 0 0 1 709,283.5938 L709,308.8906 A2.5,2.5 0 0 1 706.5,311.3906 L647.5,311.3906 A2.5,2.5 0 0 1 645,308.8906 L645,261.2969 A2.5,2.5 0 0 1 647.5,258.7969 " fill="#F1F1F1" style="stroke:#181818;stroke-width:0.5;"/><line style="stroke:#181818;stroke-width:0.5;" x1="645" x2="702" y1="281.0938" y2="281.0938"/><text fill="#000000" font-family="sans-serif" font-size="14" lengthAdjust="spacing" textLength="44" x="649" y="273.792">Kernel</text><!--MD5=[ce1bfb16a4271aa1101659bc8894af26]
class Interactor--><g id="elem_Interactor"><rect codeLine="8" fill="#F1F1F1" height="48" id="Interactor" rx="2.5" ry="2.5" style="stroke:#181818;stroke-width:0.5;" width="98" x="462" y="172.2969"/><ellipse cx="477" cy="188.2969" fill="#ADD1B2" rx="11" ry="11" style="stroke:#181818;stroke-width:1.0;"/><path d="M479.9688,193.9375 Q479.3906,194.2344 478.75,194.375 Q478.1094,194.5313 477.4063,194.5313 Q474.9063,194.5313 473.5781,192.8906 Q472.2656,191.2344 472.2656,188.1094 Q472.2656,184.9844 473.5781,183.3281 Q474.9063,181.6719 477.4063,181.6719 Q478.1094,181.6719 478.75,181.8281 Q479.4063,181.9844 479.9688,182.2813 L479.9688,185 Q479.3438,184.4219 478.75,184.1563 Q478.1563,183.875 477.5313,183.875 Q476.1875,183.875 475.5,184.9531 Q474.8125,186.0156 474.8125,188.1094 Q474.8125,190.2031 475.5,191.2813 Q476.1875,192.3438 477.5313,192.3438 Q478.1563,192.3438 478.75,192.0781 Q479.3438,191.7969 479.9688,191.2188 L479.9688,193.9375 Z " fill="#000000"/><text fill="#000000" font-family="sans-serif" font-size="14" lengthAdjust="spacing" textLength="66" x="491" y="193.1436">Interactor</text><line style="stroke:#181818;stroke-width:0.5;" x1="463" x2="559" y1="204.2969" y2="204.2969"/><line style="stroke:#181818;stroke-width:0.5;" x1="463" x2="559" y1="212.2969" y2="212.2969"/></g><!--MD5=[16cc17d8d490cd0a6c2c9d6072f6d742]
class RequestBoundary--><g id="elem_RequestBoundary"><rect codeLine="9" fill="#F1F1F1" height="56.2656" id="RequestBoundary" rx="2.5" ry="2.5" style="stroke:#181818;stroke-width:0.5;" width="157" x="239.5" y="78.2969"/><ellipse cx="254.5" cy="98.4297" fill="#B4A7E5" rx="11" ry="11" style="stroke:#181818;stroke-width:1.0;"/><path d="M250.4219,94.1953 L250.4219,92.0391 L257.8125,92.0391 L257.8125,94.1953 L255.3438,94.1953 L255.3438,102.2734 L257.8125,102.2734 L257.8125,104.4297 L250.4219,104.4297 L250.4219,102.2734 L252.8906,102.2734 L252.8906,94.1953 L250.4219,94.1953 Z " fill="#000000"/><text fill="#000000" font-family="sans-serif" font-size="12" font-style="italic" lengthAdjust="spacing" textLength="76" x="293" y="94.4355">«input port»</text><text fill="#000000" font-family="sans-serif" font-size="14" font-style="italic" lengthAdjust="spacing" textLength="125" x="268.5" y="110.2607">RequestBoundary</text><line style="stroke:#181818;stroke-width:0.5;" x1="240.5" x2="395.5" y1="118.5625" y2="118.5625"/><line style="stroke:#181818;stroke-width:0.5;" x1="240.5" x2="395.5" y1="126.5625" y2="126.5625"/></g><!--MD5=[81dacc04669b952750265e19bd910e3f]
class DefaultRequest--><g id="elem_DefaultRequest"><rect codeLine="10" fill="#F1F1F1" height="48" id="DefaultRequest" rx="2.5" ry="2.5" style="stroke:#181818;stroke-width:0.5;" width="140" x="28" y="82.2969"/><ellipse cx="43" cy="98.2969" fill="#ADD1B2" rx="11" ry="11" style="stroke:#181818;stroke-width:1.0;"/><path d="M45.9688,103.9375 Q45.3906,104.2344 44.75,104.375 Q44.1094,104.5313 43.4063,104.5313 Q40.9063,104.5313 39.5781,102.8906 Q38.2656,101.2344 38.2656,98.1094 Q38.2656,94.9844 39.5781,93.3281 Q40.9063,91.6719 43.4063,91.6719 Q44.1094,91.6719 44.75,91.8281 Q45.4063,91.9844 45.9688,92.2813 L45.9688,95 Q45.3438,94.4219 44.75,94.1563 Q44.1563,93.875 43.5313,93.875 Q42.1875,93.875 41.5,94.9531 Q40.8125,96.0156 40.8125,98.1094 Q40.8125,100.2031 41.5,101.2813 Q42.1875,102.3438 43.5313,102.3438 Q44.1563,102.3438 44.75,102.0781 Q45.3438,101.7969 45.9688,101.2188 L45.9688,103.9375 Z " fill="#000000"/><text fill="#000000" font-family="sans-serif" font-size="14" lengthAdjust="spacing" textLength="108" x="57" y="103.1436">DefaultRequest</text><line style="stroke:#181818;stroke-width:0.5;" x1="29" x2="167" y1="114.2969" y2="114.2969"/><line style="stroke:#181818;stroke-width:0.5;" x1="29" x2="167" y1="122.2969" y2="122.2969"/></g><!--MD5=[90390f5df1c0f21d6da17e2e6ede196c]
class ResponseBoundary--><g id="elem_ResponseBoundary"><rect codeLine="11" fill="#F1F1F1" height="56.2656" id="ResponseBoundary" rx="2.5" ry="2.5" style="stroke:#181818;stroke-width:0.5;" width="168" x="234" y="169.2969"/><ellipse cx="249" cy="189.4297" fill="#B4A7E5" rx="11" ry="11" style="stroke:#181818;stroke-width:1.0;"/><path d="M244.9219,185.1953 L244.9219,183.0391 L252.3125,183.0391 L252.3125,185.1953 L249.8438,185.1953 L249.8438,193.2734 L252.3125,193.2734 L252.3125,195.4297 L244.9219,195.4297 L244.9219,193.2734 L247.3906,193.2734 L247.3906,185.1953 L244.9219,185.1953 Z " fill="#000000"/><text fill="#000000" font-family="sans-serif" font-size="12" font-style="italic" lengthAdjust="spacing" textLength="76" x="293" y="185.4355">«input port»</text><text fill="#000000" font-family="sans-serif" font-size="14" font-style="italic" lengthAdjust="spacing" textLength="136" x="263" y="201.2607">ResponseBoundary</text><line style="stroke:#181818;stroke-width:0.5;" x1="235" x2="401" y1="209.5625" y2="209.5625"/><line style="stroke:#181818;stroke-width:0.5;" x1="235" x2="401" y1="217.5625" y2="217.5625"/></g><!--MD5=[ca0d4ccdefa67d1d2f5ece268e4c0cf4]
class DefaultResponse--><g id="elem_DefaultResponse"><rect codeLine="12" fill="#F1F1F1" height="48" id="DefaultResponse" rx="2.5" ry="2.5" style="stroke:#181818;stroke-width:0.5;" width="152" x="22" y="173.2969"/><ellipse cx="37" cy="189.2969" fill="#ADD1B2" rx="11" ry="11" style="stroke:#181818;stroke-width:1.0;"/><path d="M39.9688,194.9375 Q39.3906,195.2344 38.75,195.375 Q38.1094,195.5313 37.4063,195.5313 Q34.9063,195.5313 33.5781,193.8906 Q32.2656,192.2344 32.2656,189.1094 Q32.2656,185.9844 33.5781,184.3281 Q34.9063,182.6719 37.4063,182.6719 Q38.1094,182.6719 38.75,182.8281 Q39.4063,182.9844 39.9688,183.2813 L39.9688,186 Q39.3438,185.4219 38.75,185.1563 Q38.1563,184.875 37.5313,184.875 Q36.1875,184.875 35.5,185.9531 Q34.8125,187.0156 34.8125,189.1094 Q34.8125,191.2031 35.5,192.2813 Q36.1875,193.3438 37.5313,193.3438 Q38.1563,193.3438 38.75,193.0781 Q39.3438,192.7969 39.9688,192.2188 L39.9688,194.9375 Z " fill="#000000"/><text fill="#000000" font-family="sans-serif" font-size="14" lengthAdjust="spacing" textLength="120" x="51" y="194.1436">DefaultResponse</text><line style="stroke:#181818;stroke-width:0.5;" x1="23" x2="173" y1="205.2969" y2="205.2969"/><line style="stroke:#181818;stroke-width:0.5;" x1="23" x2="173" y1="213.2969" y2="213.2969"/></g><!--MD5=[6de492f04047ff8a778df2bea690e363]
class Gateway--><g id="elem_Gateway"><rect codeLine="13" fill="#F1F1F1" height="56.2656" id="Gateway" rx="2.5" ry="2.5" style="stroke:#181818;stroke-width:0.5;" width="114" x="620" y="167.2969"/><ellipse cx="635" cy="187.4297" fill="#B4A7E5" rx="11" ry="11" style="stroke:#181818;stroke-width:1.0;"/><path d="M630.9219,183.1953 L630.9219,181.0391 L638.3125,181.0391 L638.3125,183.1953 L635.8438,183.1953 L635.8438,191.2734 L638.3125,191.2734 L638.3125,193.4297 L630.9219,193.4297 L630.9219,191.2734 L633.3906,191.2734 L633.3906,183.1953 L630.9219,183.1953 Z " fill="#000000"/><text fill="#000000" font-family="sans-serif" font-size="12" font-style="italic" lengthAdjust="spacing" textLength="86" x="647" y="183.4355">«output port»</text><text fill="#000000" font-family="sans-serif" font-size="14" font-style="italic" lengthAdjust="spacing" textLength="60" x="660" y="199.2607">Gateway</text><line style="stroke:#181818;stroke-width:0.5;" x1="621" x2="733" y1="207.5625" y2="207.5625"/><line style="stroke:#181818;stroke-width:0.5;" x1="621" x2="733" y1="215.5625" y2="215.5625"/></g><!--MD5=[6d9a684c8fdf41b0034f2364649b26ee]
class DriverImplementation--><g id="elem_DriverImplementation"><rect codeLine="7" fill="#F1F1F1" height="48" id="DriverImplementation" rx="2.5" ry="2.5" style="stroke:#181818;stroke-width:0.5;" width="179" x="794" y="171.2969"/><ellipse cx="809" cy="187.2969" fill="#ADD1B2" rx="11" ry="11" style="stroke:#181818;stroke-width:1.0;"/><path d="M811.9688,192.9375 Q811.3906,193.2344 810.75,193.375 Q810.1094,193.5313 809.4063,193.5313 Q806.9063,193.5313 805.5781,191.8906 Q804.2656,190.2344 804.2656,187.1094 Q804.2656,183.9844 805.5781,182.3281 Q806.9063,180.6719 809.4063,180.6719 Q810.1094,180.6719 810.75,180.8281 Q811.4063,180.9844 811.9688,181.2813 L811.9688,184 Q811.3438,183.4219 810.75,183.1563 Q810.1563,182.875 809.5313,182.875 Q808.1875,182.875 807.5,183.9531 Q806.8125,185.0156 806.8125,187.1094 Q806.8125,189.2031 807.5,190.2813 Q808.1875,191.3438 809.5313,191.3438 Q810.1563,191.3438 810.75,191.0781 Q811.3438,190.7969 811.9688,190.2188 L811.9688,192.9375 Z " fill="#000000"/><text fill="#000000" font-family="sans-serif" font-size="14" lengthAdjust="spacing" textLength="147" x="823" y="192.1436">DriverImplementation</text><line style="stroke:#181818;stroke-width:0.5;" x1="795" x2="972" y1="203.2969" y2="203.2969"/><line style="stroke:#181818;stroke-width:0.5;" x1="795" x2="972" y1="211.2969" y2="211.2969"/></g><!--MD5=[6e68c68b23282bd35b0817cf099d52dc]
link Interactor to Kernel--><g id="link_Interactor_Kernel"><path codeLine="15" d="M556.38,220.3769 C580.32,233.3769 609.72,249.3269 633.38,262.1669 " fill="none" id="Interactor-to-Kernel" style="stroke:#181818;stroke-width:1.0;"/><polygon fill="#181818" points="644.83,268.3869,641.4668,262.0081,634.2852,262.6592,637.6483,269.038,644.83,268.3869" style="stroke:#181818;stroke-width:1.0;"/></g><!--MD5=[a230baa619314952371c893bfe3f3d46]
link Interactor to Gateway--><g id="link_Interactor_Gateway"><path codeLine="16" d="M560.32,196.0069 C574.79,195.9169 590.95,195.8169 606.5,195.7169 " fill="none" id="Interactor-to-Gateway" style="stroke:#181818;stroke-width:1.0;"/><polygon fill="none" points="619.95,195.6369,613.9238,191.6765,607.9503,195.716,613.9765,199.6763,619.95,195.6369" style="stroke:#181818;stroke-width:1.0;"/></g><!--MD5=[18a1f246f05c14c0d386461b74304eac]
reverse link RequestBoundary to Interactor--><g id="link_RequestBoundary_Interactor"><path codeLine="17" d="M390.52,139.9969 C414.37,151.2369 440.35,163.4769 461.97,173.6669 " fill="none" id="RequestBoundary-backto-Interactor" style="stroke:#181818;stroke-width:1.0;"/><polygon fill="none" points="378.65,134.4069,382.3714,140.5835,389.5042,139.5241,385.7828,133.3474,378.65,134.4069" style="stroke:#181818;stroke-width:1.0;"/></g><!--MD5=[7701ba76062b3249db66cba681ae8165]
reverse link ResponseBoundary to Interactor--><g id="link_ResponseBoundary_Interactor"><path codeLine="18" d="M415.68,196.7869 C431.74,196.7069 447.76,196.6269 461.91,196.5469 " fill="none" id="ResponseBoundary-backto-Interactor" style="stroke:#181818;stroke-width:1.0;"/><polygon fill="none" points="402.22,196.8569,408.2375,200.8305,414.2199,196.8041,408.2024,192.8305,402.22,196.8569" style="stroke:#181818;stroke-width:1.0;"/></g><!--MD5=[284f4d959bf891994bbf320200d4f169]
link DefaultRequest to RequestBoundary--><g id="link_DefaultRequest_RequestBoundary"><path codeLine="20" d="M168.28,106.2969 C184.41,106.2969 201.88,106.2969 218.99,106.2969 " fill="none" id="DefaultRequest-to-RequestBoundary" style="stroke:#181818;stroke-width:1.0;"/><polygon fill="none" points="219.19,99.2969,239.19,106.2969,219.19,113.2969,219.19,99.2969" style="stroke:#181818;stroke-width:1.0;"/></g><!--MD5=[4417beaa902791d983e443782fa238ea]
link DefaultResponse to ResponseBoundary--><g id="link_DefaultResponse_ResponseBoundary"><path codeLine="21" d="M174.02,197.2969 C186.86,197.2969 200.4,197.2969 213.83,197.2969 " fill="none" id="DefaultResponse-to-ResponseBoundary" style="stroke:#181818;stroke-width:1.0;"/><polygon fill="none" points="214,190.2969,234,197.2969,214,204.2969,214,190.2969" style="stroke:#181818;stroke-width:1.0;"/></g><!--MD5=[a98292159be4bc65db2367cca181d90b]
reverse link Gateway to DriverImplementation--><g id="link_Gateway_DriverImplementation"><path codeLine="8" d="M754.4,195.2969 C767.26,195.2969 780.69,195.2969 793.83,195.2969 " fill="none" id="Gateway-backto-DriverImplementation" style="stroke:#181818;stroke-width:1.0;"/><polygon fill="none" points="754.15,202.2969,734.15,195.2969,754.15,188.2969,754.15,202.2969" style="stroke:#181818;stroke-width:1.0;"/></g><!--MD5=[73133b0706857076c331316582f155da]
@startuml name "Generic Use Case - Gateway"

!include generic-use-case.puml

Title "Generic Use Case - Gateway"

package "Gateway Driver" {
    class DriverImplementation {}
    Gateway <|- - DriverImplementation
}

@enduml

@startuml name "Generic Use Case - Gateway"

left to right direction

Title "Generic Use Case Structure"

package "Kernel" {}

package "Usecase" {
    class Interactor {}
    interface RequestBoundary << input port >> {}
    class DefaultRequest {}
    interface ResponseBoundary << input port >> {}
    class DefaultResponse {}
    interface Gateway << output port >> {}

    Interactor - -* Kernel
    Interactor - -o Gateway
    RequestBoundary o- - Interactor
    ResponseBoundary o- - Interactor

    DefaultRequest - -|> RequestBoundary  
    DefaultResponse - -|> ResponseBoundary 
}


Title "Generic Use Case - Gateway"

package "Gateway Driver" {
    class DriverImplementation {}
    Gateway <|- - DriverImplementation
}

@enduml

PlantUML version 1.2022.6(Tue Jun 21 17:34:49 UTC 2022)
(GPL source distribution)
Java Runtime: OpenJDK Runtime Environment
JVM: OpenJDK 64-Bit Server VM
Default Encoding: UTF-8
Language: en
Country: null
--></g></svg>